<svg width="244" height="70" viewBox="0 0 244 70" fill="none" xmlns="http://www.w3.org/2000/svg">
<path fill-rule="evenodd" clip-rule="evenodd" d="M0 0H209C228.33 0 244 15.67 244 35C244 54.33 228.33 70 209 70H0V0ZM87.7301 48.42C85.7934 48.42 84.0085 48.1167 82.3751 47.51C80.7651 46.88 79.3535 45.9933 78.1401 44.85C76.9501 43.7067 76.0168 42.365 75.3401 40.825C74.6868 39.285 74.3601 37.5933 74.3601 35.75C74.3601 33.9067 74.6868 32.215 75.3401 30.675C76.0168 29.135 76.9618 27.7933 78.1751 26.65C79.3885 25.5067 80.8118 24.6317 82.4451 24.025C84.0785 23.395 85.8751 23.08 87.8351 23.08C90.0051 23.08 91.9535 23.4417 93.6801 24.165C95.4301 24.8883 96.9001 25.9383 98.0901 27.315L94.4501 30.675C93.5635 29.7417 92.5951 29.0533 91.5451 28.61C90.4951 28.1433 89.3518 27.91 88.1151 27.91C86.9251 27.91 85.8401 28.0967 84.8601 28.47C83.8801 28.8433 83.0285 29.38 82.3051 30.08C81.6051 30.78 81.0568 31.6083 80.6601 32.565C80.2868 33.5217 80.1001 34.5833 80.1001 35.75C80.1001 36.8933 80.2868 37.9433 80.6601 38.9C81.0568 39.8567 81.6051 40.6967 82.3051 41.42C83.0285 42.12 83.8685 42.6567 84.8251 43.03C85.8051 43.4033 86.8784 43.59 88.0451 43.59C89.1651 43.59 90.2501 43.415 91.3001 43.065C91.6897 42.9295 92.0747 42.7617 92.4551 42.5616V35.365H97.6351V45.305C96.3051 46.3083 94.7534 47.0783 92.9801 47.615C91.2301 48.1517 89.4801 48.42 87.7301 48.42ZM102.517 48V29.17H107.732V31.6424C108.247 30.9409 108.9 30.3734 109.692 29.94C110.929 29.24 112.434 28.89 114.207 28.89V33.93C113.974 33.9067 113.764 33.895 113.577 33.895C113.39 33.8717 113.192 33.86 112.982 33.86C111.489 33.86 110.275 34.2917 109.342 35.155C108.432 35.995 107.977 37.3133 107.977 39.11V48H102.517ZM126.277 48.28C124.27 48.28 122.485 47.86 120.922 47.02C119.382 46.18 118.157 45.0367 117.247 43.59C116.36 42.12 115.917 40.4517 115.917 38.585C115.917 36.695 116.36 35.0267 117.247 33.58C118.157 32.11 119.382 30.9667 120.922 30.15C122.485 29.31 124.27 28.89 126.277 28.89C128.26 28.89 130.034 29.31 131.597 30.15C133.16 30.9667 134.385 32.0983 135.272 33.545C136.159 34.9917 136.602 36.6717 136.602 38.585C136.602 40.4517 136.159 42.12 135.272 43.59C134.385 45.0367 133.16 46.18 131.597 47.02C130.034 47.86 128.26 48.28 126.277 48.28ZM126.277 43.8C127.187 43.8 128.004 43.59 128.727 43.17C129.45 42.75 130.022 42.155 130.442 41.385C130.862 40.5917 131.072 39.6583 131.072 38.585C131.072 37.4883 130.862 36.555 130.442 35.785C130.022 35.015 129.45 34.42 128.727 34C128.004 33.58 127.187 33.37 126.277 33.37C125.367 33.37 124.55 33.58 123.827 34C123.104 34.42 122.52 35.015 122.077 35.785C121.657 36.555 121.447 37.4883 121.447 38.585C121.447 39.6583 121.657 40.5917 122.077 41.385C122.52 42.155 123.104 42.75 123.827 43.17C124.55 43.59 125.367 43.8 126.277 43.8ZM148.196 48.28C146.633 48.28 145.233 47.9767 143.996 47.37C142.783 46.7633 141.838 45.8417 141.161 44.605C140.485 43.345 140.146 41.7467 140.146 39.81V29.17H145.606V39.005C145.606 40.5683 145.933 41.7233 146.586 42.47C147.263 43.1933 148.208 43.555 149.421 43.555C150.261 43.555 151.008 43.38 151.661 43.03C152.315 42.6567 152.828 42.0967 153.201 41.35C153.575 40.58 153.761 39.6233 153.761 38.48V29.17H159.221V48H154.041V45.7937C153.526 46.4031 152.908 46.9052 152.186 47.3C150.973 47.9533 149.643 48.28 148.196 48.28ZM175.725 28.89C177.218 28.89 178.548 29.1933 179.715 29.8C180.905 30.3833 181.838 31.2933 182.515 32.53C183.191 33.7433 183.53 35.3067 183.53 37.22V48H178.07V38.06C178.07 36.5433 177.731 35.4233 177.055 34.7C176.401 33.9767 175.468 33.615 174.255 33.615C173.391 33.615 172.61 33.8017 171.91 34.175C171.233 34.525 170.696 35.0733 170.3 35.82C169.926 36.5667 169.74 37.5233 169.74 38.69V48H164.28V29.17H169.495V31.4066C170.035 30.8046 170.677 30.3041 171.42 29.905C172.68 29.2283 174.115 28.89 175.725 28.89ZM196.701 48.28C194.927 48.28 193.329 47.8833 191.906 47.09C190.482 46.2733 189.351 45.1417 188.511 43.695C187.694 42.2483 187.286 40.545 187.286 38.585C187.286 36.6017 187.694 34.8867 188.511 33.44C189.351 31.9933 190.482 30.8733 191.906 30.08C193.329 29.2867 194.927 28.89 196.701 28.89C198.287 28.89 199.676 29.24 200.866 29.94C201.412 30.2615 201.902 30.6594 202.336 31.1335V22.03H207.796V48H202.581V45.8257C202.11 46.3938 201.561 46.8619 200.936 47.23C199.769 47.93 198.357 48.28 196.701 48.28ZM197.646 43.8C198.532 43.8 199.337 43.59 200.061 43.17C200.784 42.75 201.356 42.155 201.776 41.385C202.219 40.5917 202.441 39.6583 202.441 38.585C202.441 37.4883 202.219 36.555 201.776 35.785C201.356 35.015 200.784 34.42 200.061 34C199.337 33.58 198.532 33.37 197.646 33.37C196.736 33.37 195.919 33.58 195.196 34C194.472 34.42 193.889 35.015 193.446 35.785C193.026 36.555 192.816 37.4883 192.816 38.585C192.816 39.6583 193.026 40.5917 193.446 41.385C193.889 42.155 194.472 42.75 195.196 43.17C195.919 43.59 196.736 43.8 197.646 43.8ZM17.965 48L29.06 23.5H32.525L43.655 48H39.98L37.2884 41.875H24.2616L21.57 48H17.965ZM30.775 27.0529L36.058 39.075H25.492L30.775 27.0529ZM46.8198 48V29.45H50.0398V32.5596C50.5639 31.6001 51.3222 30.8435 52.3148 30.29C53.5281 29.6133 55.0214 29.275 56.7948 29.275V32.53C56.6548 32.5067 56.5148 32.495 56.3748 32.495H56.0248C54.2281 32.495 52.8048 33.0317 51.7548 34.105C50.7048 35.1783 50.1798 36.73 50.1798 38.76V48H46.8198ZM68.0579 48.21C66.1913 48.21 64.7446 47.7083 63.7179 46.705C62.6913 45.7017 62.1779 44.2667 62.1779 42.4V32.215H59.0279V29.45H62.1779V25.39H65.5379V29.45H70.8579V32.215H65.5379V42.26C65.5379 43.2633 65.7829 44.0333 66.2729 44.57C66.7863 45.1067 67.5096 45.375 68.4429 45.375C69.4929 45.375 70.3679 45.0833 71.0679 44.5L72.1179 46.915C71.6046 47.3583 70.9863 47.685 70.2629 47.895C69.5629 48.105 68.8279 48.21 68.0579 48.21ZM225.5 43C229.642 43 233 39.6421 233 35.5C233 31.3579 229.642 28 225.5 28C221.358 28 218 31.3579 218 35.5C218 39.6421 221.358 43 225.5 43Z" fill="#4A68A9"/>
</svg>
